<?xml version="1.0" encoding="UTF-8" standalone="no"?>
<svg
   viewBox="0 0 177 103.76"
   version="1.1"
   id="svg240"
   sodipodi:docname="logo-egemsa.svg"
   inkscape:version="1.1.1 (3bf5ae0d25, 2021-09-20)"
   xmlns:inkscape="http://www.inkscape.org/namespaces/inkscape"
   xmlns:sodipodi="http://sodipodi.sourceforge.net/DTD/sodipodi-0.dtd"
   xmlns="http://www.w3.org/2000/svg"
   xmlns:svg="http://www.w3.org/2000/svg">
  <sodipodi:namedview
     id="namedview242"
     pagecolor="#ffffff"
     bordercolor="#666666"
     borderopacity="1.0"
     inkscape:pageshadow="2"
     inkscape:pageopacity="0.0"
     inkscape:pagecheckerboard="0"
     showgrid="false"
     inkscape:zoom="1.7323631"
     inkscape:cx="-40.11861"
     inkscape:cy="8.6586928"
     inkscape:window-width="1500"
     inkscape:window-height="948"
     inkscape:window-x="-6"
     inkscape:window-y="-6"
     inkscape:window-maximized="1"
     inkscape:current-layer="Capa_1-2" />
  <defs
     id="defs4">
    <style
       id="style2">.cls-1{isolation:isolate;}.cls-2{fill:#003d7c;}.cls-3{fill:#80ba27;}.cls-3,.cls-6{fill-rule:evenodd;}.cls-4{opacity:0.75;mix-blend-mode:multiply;}.cls-5,.cls-6{fill:#fff;}</style>
  </defs>
  <g
     id="Capa_1-2"
     data-name="Capa 1"
     transform="translate(-71.578527,1.7317386)"
     style="isolation:isolate">
    <g
       id="g1590"
       transform="translate(6.9269542,-9.8131852)">
      <path
         class="cls-2"
         d="m 238.0378,35.624797 a 3.64,3.64 0 0 0 -0.93,-1.7 3.45,3.45 0 0 0 -2,-1.11 27.23,27.23 0 0 0 -4.59,-0.26 h -1.37 a 24.35,24.35 0 0 0 -5.1,0.43 4.55,4.55 0 0 0 -2.82,1.87 5.22,5.22 0 0 0 -0.68,2.56 h 5 a 1.42,1.42 0 0 1 0.76,-1.28 17.45,17.45 0 0 1 2.81,-0.17 h 0.6 a 6.12,6.12 0 0 1 2.89,0.43 c 0.43,0.25 0.6,0.93 0.6,2.12 v 0.69 h -0.17 a 2.67,2.67 0 0 0 -1.36,-0.86 9,9 0 0 0 -2.56,-0.25 39.3,39.3 0 0 0 -5.53,0.25 4.47,4.47 0 0 0 -2.47,1.2 4.59,4.59 0 0 0 -1.19,3.57 3.55,3.55 0 0 0 2.81,4.17 15,15 0 0 0 3.15,0.26 c 1.36,0 2.47,-0.09 3.23,-0.09 a 1.12,1.12 0 0 0 0.51,-0.08 4.73,4.73 0 0 0 1.79,-0.34 4.47,4.47 0 0 0 1.79,-1.79 h 0.26 v 1.87 h 4.85 v -8.51 a 13.22,13.22 0 0 0 -0.28,-2.98 z m -5.87,8.17 a 16.58,16.58 0 0 1 -3.07,0.34 h -0.56 a 8.42,8.42 0 0 1 -2.73,-0.34 1.13,1.13 0 0 1 -0.76,-1.19 1.18,1.18 0 0 1 0.76,-1.11 8,8 0 0 1 3.15,-0.34 h 0.17 a 16.16,16.16 0 0 1 3.15,0.17 1.12,1.12 0 0 1 0.86,1.2 1.34,1.34 0 0 1 -0.97,1.27 z"
         id="path6" />
      <path
         class="cls-2"
         d="m 198.7878,34.344797 a 5.46,5.46 0 0 0 -2.25,-1.37 13.14,13.14 0 0 0 -3.49,-0.43 9,9 0 0 0 -3.83,0.69 3.92,3.92 0 0 0 -2,2.3 4.44,4.44 0 0 0 -2.21,-2.3 10,10 0 0 0 -3.91,-0.69 c -3,0 -4.77,0.86 -5.54,2.47 h -0.26 v -2.11 h -4.76 v 14.21 h 5 v -5.87 a 17.94,17.94 0 0 1 0.17,-2.56 4.28,4.28 0 0 1 0.6,-1.27 c 0.59,-0.6 1.61,-0.85 3.15,-0.85 1.54,0 2.38,0.25 2.81,0.76 a 1.4,1.4 0 0 1 0.42,0.94 13.16,13.16 0 0 1 0.09,2.21 v 6.64 h 5.11 v -5.87 a 15.12,15.12 0 0 1 0.17,-2.47 2.25,2.25 0 0 1 0.59,-1.28 c 0.51,-0.68 1.54,-0.93 3.07,-0.93 a 4,4 0 0 1 2.81,0.76 2.06,2.06 0 0 1 0.51,1 c 0,0.34 0.08,1.11 0.08,2.13 v 6.64 h 5.11 v -6.62 a 14.27,14.27 0 0 0 -0.34,-3.91 4.5,4.5 0 0 0 -1.1,-2.22 z"
         id="path8" />
      <path
         class="cls-2"
         d="m 218.3778,39.114797 a 6.84,6.84 0 0 0 -4.17,-1 c -4,0 -6.31,-0.09 -7,-0.09 -0.69,0 -1.19,-0.42 -1.19,-1 0,-0.42 0.34,-0.68 0.85,-0.85 a 14.35,14.35 0 0 1 3.32,-0.25 7.52,7.52 0 0 1 3.15,0.34 2.35,2.35 0 0 1 0.43,0.68 h 5.11 a 9.61,9.61 0 0 0 -0.26,-2 3.09,3.09 0 0 0 -0.77,-1.11 5,5 0 0 0 -2.47,-1 34.36,34.36 0 0 0 -5,-0.26 c -3.66,0 -6.13,0.26 -7.23,0.69 -1.45,0.68 -2.22,2 -2.22,4.08 a 4.67,4.67 0 0 0 0.68,2.64 4.09,4.09 0 0 0 3.24,1.62 39.53,39.53 0 0 0 4.51,0.17 28.51,28.51 0 0 1 4.34,0.17 c 0.6,0.17 0.86,0.51 0.86,0.94 0,0.43 -0.34,0.85 -0.94,1.1 a 14.13,14.13 0 0 1 -3.32,0.26 10,10 0 0 1 -3.32,-0.34 1.49,1.49 0 0 1 -0.94,-1.28 h -5.2 a 4.47,4.47 0 0 0 1.19,3.35 4.55,4.55 0 0 0 2.51,1.23 27.83,27.83 0 0 0 5.37,0.34 c 3.83,0 6.38,-0.34 7.58,-0.85 a 3.17,3.17 0 0 0 1.61,-1.53 5.85,5.85 0 0 0 0.51,-2.64 c 0.04,-1.62 -0.38,-2.81 -1.23,-3.41 z"
         id="path10" />
      <path
         class="cls-2"
         d="m 165.4178,32.814797 a 30.65,30.65 0 0 0 -4.77,-0.26 h -0.17 a 28.65,28.65 0 0 0 -5.53,0.43 4.29,4.29 0 0 0 -3,2.21 6.53,6.53 0 0 0 -0.51,1.88 23.9,23.9 0 0 0 -0.17,3.06 15.62,15.62 0 0 0 0.42,4 3.64,3.64 0 0 0 1.28,2 5.39,5.39 0 0 0 2.55,1 21,21 0 0 0 4.52,0.34 h 0.42 a 34.51,34.51 0 0 0 5,-0.34 5.44,5.44 0 0 0 2.77,-1.16 4.6,4.6 0 0 0 1.36,-3.32 h -5.05 a 2,2 0 0 1 -0.34,0.94 2.69,2.69 0 0 1 -1.2,0.42 17.13,17.13 0 0 1 -2.55,0.17 6.77,6.77 0 0 1 -3.4,-0.59 2.06,2.06 0 0 1 -0.51,-0.82 6.87,6.87 0 0 1 -0.17,-1.62 h 13.29 c 0,-0.68 0.08,-1.19 0.08,-1.44 a 10.44,10.44 0 0 0 -0.94,-5 5,5 0 0 0 -3.38,-1.9 z m -4.94,5.45 h -4.09 a 2.18,2.18 0 0 1 0.85,-2 9,9 0 0 1 3.24,-0.42 h 0.17 c 2,0 3.15,0.17 3.58,0.68 a 1.32,1.32 0 0 1 0.25,0.59 6.52,6.52 0 0 1 0.17,1.11 z"
         id="path12" />
      <path
         class="cls-2"
         d="m 126.6778,32.814797 a 30.56,30.56 0 0 0 -4.77,-0.26 h -0.17 a 28.65,28.65 0 0 0 -5.53,0.43 4.29,4.29 0 0 0 -3,2.21 6.53,6.53 0 0 0 -0.51,1.88 23.9,23.9 0 0 0 -0.16,3.06 15.62,15.62 0 0 0 0.42,4 4.19,4.19 0 0 0 1.28,2 5.76,5.76 0 0 0 2.55,1 21.4,21.4 0 0 0 4.6,0.34 h 0.34 a 33.89,33.89 0 0 0 5,-0.34 6.21,6.21 0 0 0 2.81,-1.16 5,5 0 0 0 1.27,-3.32 h -5 a 2,2 0 0 1 -0.34,0.94 2.69,2.69 0 0 1 -1.19,0.42 16.55,16.55 0 0 1 -2.56,0.17 6.82,6.82 0 0 1 -3.4,-0.59 1.91,1.91 0 0 1 -0.51,-0.77 6.36,6.36 0 0 1 -0.17,-1.62 h 13.3 a 11.76,11.76 0 0 0 0.08,-1.44 10.44,10.44 0 0 0 -0.94,-5 4.78,4.78 0 0 0 -3.4,-1.95 z m -4.94,5.45 h -4.08 a 2.36,2.36 0 0 1 0.85,-2 8.93,8.93 0 0 1 3.23,-0.42 h 0.17 c 2,0 3.15,0.17 3.58,0.68 a 0.76,0.76 0 0 1 0.25,0.59 6.52,6.52 0 0 1 0.17,1.11 z"
         id="path14" />
      <path
         class="cls-2"
         d="m 145.7478,34.774797 h -0.21 a 5.1,5.1 0 0 0 -2,-1.8 9.14,9.14 0 0 0 -2.56,-0.43 h -1.27 a 17.62,17.62 0 0 0 -5,0.52 4,4 0 0 0 -2.5,1.91 9.48,9.48 0 0 0 -0.85,4.6 14.92,14.92 0 0 0 0.43,4.08 3.85,3.85 0 0 0 1.44,2.13 5.59,5.59 0 0 0 2.39,0.94 24.71,24.71 0 0 0 4.09,0.25 h 1.27 a 7.51,7.51 0 0 0 2.39,-0.42 4,4 0 0 0 2,-1.79 h 0.17 v 1.21 a 10.91,10.91 0 0 1 -0.09,2 2,2 0 0 1 -0.51,0.94 2.65,2.65 0 0 1 -1.36,0.76 15.57,15.57 0 0 1 -2.56,0.17 h -0.38 a 10,10 0 0 1 -2.72,-0.25 1.29,1.29 0 0 1 -0.94,-1.11 l -0.08,-0.08 h -5.2 a 5.37,5.37 0 0 0 1.53,3.57 5.2,5.2 0 0 0 2.56,1.28 29.82,29.82 0 0 0 4.75,0.42 h 0.42 a 25.54,25.54 0 0 0 6.3,-0.77 5.22,5.22 0 0 0 1.79,-1.19 4.82,4.82 0 0 0 1.13,-1.74 c 0.17,-0.59 0.25,-1.1 0.34,-1.53 0.09,-0.43 0.08,-1.19 0.08,-2.38 v -13.16 h -4.85 z m -0.42,6.64 a 1.92,1.92 0 0 1 -0.6,0.94 c -0.6,0.42 -1.87,0.59 -3.75,0.59 h -0.08 a 8.75,8.75 0 0 1 -3.07,-0.34 1.83,1.83 0 0 1 -1.1,-0.85 5.74,5.74 0 0 1 -0.26,-2 4.38,4.38 0 0 1 0.26,-1.78 1.48,1.48 0 0 1 0.68,-0.93 8.22,8.22 0 0 1 3.57,-0.51 h 0.17 a 9.48,9.48 0 0 1 3.32,0.42 1.65,1.65 0 0 1 0.77,0.94 5.13,5.13 0 0 1 0.3,1.9 7.53,7.53 0 0 1 -0.21,1.62 z"
         id="path16" />
      <polygon
         class="cls-2"
         points="127.76,68.9 127.76,64.98 128.87,68.9 129.21,68.9 130.32,64.98 130.32,68.9 130.66,68.9 130.66,64.73 130.06,64.73 129.04,68.39 128.02,64.73 127.42,64.73 127.42,68.9 "
         id="polygon18"
         transform="translate(67.537804,-45.025203)" />
      <path
         class="cls-2"
         d="m 188.9178,23.974797 a 1,1 0 0 0 0.85,-0.43 1.92,1.92 0 0 0 0.34,-1.11 h -0.34 a 1.12,1.12 0 0 1 -0.26,0.85 0.64,0.64 0 0 1 -0.59,0.35 0.66,0.66 0 0 1 -0.6,-0.43 3.17,3.17 0 0 1 -0.25,-1.45 2.78,2.78 0 0 1 0.25,-1.36 0.63,0.63 0 0 1 0.6,-0.51 0.76,0.76 0 0 1 0.59,0.25 c 0.17,0.17 0.17,0.43 0.26,0.77 h 0.34 a 1.06,1.06 0 0 0 -0.34,-0.94 1,1 0 0 0 -0.85,-0.34 1.07,1.07 0 0 0 -0.94,0.51 3.81,3.81 0 0 0 -0.25,1.62 4.45,4.45 0 0 0 0.25,1.7 1.06,1.06 0 0 0 0.94,0.52 z"
         id="path20" />
      <path
         class="cls-2"
         d="m 202.9578,23.974797 a 1,1 0 0 0 0.86,-0.43 1.92,1.92 0 0 0 0.34,-1.11 h -0.34 a 1.12,1.12 0 0 1 -0.26,0.85 0.64,0.64 0 0 1 -0.6,0.35 0.89,0.89 0 0 1 -0.68,-0.43 5.82,5.82 0 0 1 -0.17,-1.45 5.07,5.07 0 0 1 0.17,-1.36 0.8,0.8 0 0 1 0.68,-0.51 0.77,0.77 0 0 1 0.6,0.25 1.66,1.66 0 0 1 0.17,0.77 h 0.43 a 1.38,1.38 0 0 0 -0.34,-0.94 1.12,1.12 0 0 0 -0.86,-0.34 1,1 0 0 0 -0.93,0.51 3.79,3.79 0 0 0 -0.26,1.62 4.42,4.42 0 0 0 0.26,1.7 1,1 0 0 0 0.93,0.52 z"
         id="path22" />
      <rect
         class="cls-2"
         x="237.01781"
         y="23.364798"
         width="0.34"
         height="0.50999999"
         id="rect24" />
      <polygon
         class="cls-2"
         points="114.82,68.9 114.82,65.07 115.76,65.07 115.76,64.73 113.55,64.73 113.55,65.07 114.48,65.07 114.48,68.9 "
         id="polygon26"
         transform="translate(67.537804,-45.025203)" />
      <path
         class="cls-2"
         d="m 191.2178,22.514797 h 1.32 l 0.33,1.36 h 0.34 l -1.1,-4.17 h -0.43 l -1.14,4.17 h 0.33 z m 0.59,-2.39 0.6,2.13 h -1.11 z"
         id="path28" />
      <path
         class="cls-2"
         d="m 184.1478,21.914797 h 0.68 a 0.72,0.72 0 0 1 0.51,0.17 1.08,1.08 0 0 1 0.17,0.68 v 0.34 a 4.38,4.38 0 0 0 0.09,0.77 h 0.42 a 1.91,1.91 0 0 1 -0.17,-0.85 v -0.34 a 3.13,3.13 0 0 0 -0.17,-0.68 1.7,1.7 0 0 0 -0.42,-0.26 c 0.25,-0.08 0.34,-0.25 0.51,-0.42 a 1,1 0 0 0 0.17,-0.6 1.09,1.09 0 0 0 -0.34,-0.77 1.05,1.05 0 0 0 -0.77,-0.25 h -1.11 v 4.17 h 0.43 z m 0,-2 h 0.68 c 0.17,0.09 0.34,0.09 0.51,0.17 a 0.73,0.73 0 0 1 0.17,0.6 1.27,1.27 0 0 1 -0.17,0.68 1.14,1.14 0 0 1 -0.51,0.17 h -0.68 z"
         id="path30" />
      <rect
         class="cls-2"
         x="186.61781"
         y="19.704802"
         width="0.34"
         height="4.1700001"
         id="rect32" />
      <rect
         class="cls-2"
         x="213.85782"
         y="19.704802"
         width="0.34"
         height="4.1700001"
         id="rect34" />
      <path
         class="cls-2"
         d="m 225.3578,23.974797 a 0.91,0.91 0 0 0 0.85,-0.34 1.35,1.35 0 0 0 0.34,-0.86 v -3.07 h -0.34 v 3 c 0,0.17 -0.09,0.25 -0.09,0.34 a 0.31,0.31 0 0 1 -0.08,0.25 l -0.26,0.26 c -0.08,0.09 -0.25,0.09 -0.42,0.09 a 0.75,0.75 0 0 1 -0.43,-0.09 l -0.25,-0.26 c 0,-0.08 -0.09,-0.17 -0.09,-0.25 v -3.34 h -0.34 v 3.06 a 1.32,1.32 0 0 0 0.26,0.86 1,1 0 0 0 0.85,0.35 z"
         id="path36" />
      <polygon
         class="cls-2"
         points="139.34,66.77 139.34,68.9 139.68,68.9 139.68,64.73 139.34,64.73 139.34,66.43 137.64,66.43 137.64,64.73 137.3,64.73 137.3,68.9 137.64,68.9 137.64,66.77 "
         id="polygon38"
         transform="translate(67.537804,-45.025203)" />
      <rect
         class="cls-2"
         x="231.5778"
         y="23.364798"
         width="0.34"
         height="0.50999999"
         id="rect40" />
      <polygon
         class="cls-2"
         points="155.52,66.77 155.52,68.9 155.94,68.9 155.94,64.73 155.52,64.73 155.52,66.43 153.9,66.43 153.9,64.73 153.56,64.73 153.56,68.9 153.9,68.9 153.9,66.77 "
         id="polygon42"
         transform="translate(67.537804,-45.025203)" />
      <path
         class="cls-2"
         d="m 179.4678,23.974797 a 1,1 0 0 0 0.85,-0.43 1.92,1.92 0 0 0 0.34,-1.11 h -0.34 a 1.12,1.12 0 0 1 -0.26,0.85 0.64,0.64 0 0 1 -0.59,0.35 0.88,0.88 0 0 1 -0.68,-0.43 5.38,5.38 0 0 1 -0.17,-1.45 4.69,4.69 0 0 1 0.17,-1.36 0.79,0.79 0 0 1 0.68,-0.51 0.76,0.76 0 0 1 0.59,0.25 1.66,1.66 0 0 1 0.17,0.77 h 0.43 a 1.38,1.38 0 0 0 -0.34,-0.94 1,1 0 0 0 -0.85,-0.34 1,1 0 0 0 -0.94,0.51 3.79,3.79 0 0 0 -0.26,1.62 4.42,4.42 0 0 0 0.26,1.7 1,1 0 0 0 0.94,0.52 z"
         id="path44" />
      <path
         class="cls-2"
         d="m 229.6078,23.624797 a 0.77,0.77 0 0 1 -0.59,-0.26 1.55,1.55 0 0 1 -0.17,-0.68 h -0.31 a 1.56,1.56 0 0 0 0.25,0.94 1.52,1.52 0 0 0 0.85,0.34 0.92,0.92 0 0 0 0.86,-0.34 1,1 0 0 0 0.34,-0.86 1.7,1.7 0 0 0 -0.17,-0.68 1.62,1.62 0 0 0 -0.77,-0.42 0.09,0.09 0 0 0 -0.09,-0.09 5.06,5.06 0 0 1 -0.68,-0.34 c -0.08,-0.08 -0.08,-0.17 -0.17,-0.25 v -0.26 a 1.33,1.33 0 0 1 0.17,-0.6 0.79,0.79 0 0 1 0.6,-0.25 0.72,0.72 0 0 1 0.68,0.77 h 0.34 a 1,1 0 0 0 -0.25,-0.77 1.39,1.39 0 0 0 -0.77,-0.26 1.43,1.43 0 0 0 -0.85,0.26 1.37,1.37 0 0 0 -0.26,0.77 1.12,1.12 0 0 0 0.17,0.76 1.37,1.37 0 0 0 0.69,0.43 c 0.08,0 0.16,0.08 0.25,0.08 a 1.29,1.29 0 0 1 0.51,0.26 c 0.09,0.08 0.17,0.17 0.17,0.25 a 0.5,0.5 0 0 1 0.09,0.34 0.78,0.78 0 0 1 -0.26,0.6 0.66,0.66 0 0 1 -0.63,0.26 z"
         id="path46" />
      <path
         class="cls-2"
         d="m 211.3878,21.914797 h 0.77 a 1.05,1.05 0 0 0 0.77,-0.25 1.14,1.14 0 0 0 0.34,-0.85 3,3 0 0 0 -0.09,-0.52 1.71,1.71 0 0 0 -0.25,-0.42 c -0.09,-0.09 -0.26,-0.09 -0.43,-0.17 h -1.45 v 4.17 h 0.34 z m 0,-2 h 0.77 c 0.26,0.09 0.43,0.09 0.51,0.17 a 0.86,0.86 0 0 1 0.26,0.69 c 0,0.17 -0.09,0.25 -0.09,0.42 l -0.25,0.26 c -0.09,0 -0.17,0.08 -0.26,0.08 h -0.17 a 0.29,0.29 0 0 1 -0.25,0.09 h -0.52 z"
         id="path48" />
      <path
         class="cls-2"
         d="m 208.3278,23.624797 a 0.91,0.91 0 0 0 0.85,0.34 1.1,1.1 0 0 0 0.85,-0.34 1.32,1.32 0 0 0 0.26,-0.86 v -3.06 h -0.34 v 3.32 a 0.29,0.29 0 0 0 -0.09,0.25 1.11,1.11 0 0 1 -0.34,0.26 0.48,0.48 0 0 1 -0.34,0.09 c -0.17,0 -0.34,0 -0.42,-0.09 -0.08,-0.09 -0.26,-0.17 -0.26,-0.26 a 0.29,0.29 0 0 1 -0.09,-0.25 c -0.08,-0.09 -0.08,-0.26 -0.08,-0.51 v -2.81 h -0.34 v 3.06 a 1,1 0 0 0 0.34,0.86 z"
         id="path50" />
      <path
         class="cls-2"
         d="m 234.4678,22.514797 h 1.28 l 0.33,1.36 h 0.35 l -1.11,-4.17 h -0.42 l -1.11,4.17 h 0.34 z m 0.59,-2.39 h 0.09 l 0.51,2.13 h -1.12 z"
         id="path52" />
      <path
         class="cls-2"
         d="m 219.2278,23.974797 a 1.18,1.18 0 0 0 0.85,-0.43 3,3 0 0 0 0.34,-1.11 h -0.43 a 1.12,1.12 0 0 1 -0.25,0.85 0.48,0.48 0 0 1 -0.51,0.35 0.77,0.77 0 0 1 -0.68,-0.43 3.15,3.15 0 0 1 -0.26,-1.45 2.77,2.77 0 0 1 0.26,-1.36 c 0.17,-0.34 0.34,-0.51 0.68,-0.51 a 0.52,0.52 0 0 1 0.51,0.25 1.05,1.05 0 0 1 0.25,0.77 h 0.34 a 1.39,1.39 0 0 0 -0.25,-0.94 1.12,1.12 0 0 0 -0.85,-0.34 1,1 0 0 0 -0.94,0.51 2.77,2.77 0 0 0 -0.34,1.62 3.2,3.2 0 0 0 0.34,1.7 1,1 0 0 0 0.94,0.52 z"
         id="path54" />
      <path
         class="cls-2"
         d="m 216.1578,23.974797 a 1.16,1.16 0 0 0 0.85,-0.43 2.8,2.8 0 0 0 0.34,-1.11 h -0.34 a 3.42,3.42 0 0 1 -0.25,0.85 0.64,0.64 0 0 1 -0.6,0.35 0.77,0.77 0 0 1 -0.68,-0.43 5.38,5.38 0 0 1 -0.17,-1.45 4.69,4.69 0 0 1 0.17,-1.36 c 0.17,-0.34 0.34,-0.51 0.68,-0.51 a 0.77,0.77 0 0 1 0.6,0.25 1.79,1.79 0 0 1 0.17,0.77 h 0.42 a 2,2 0 0 0 -0.34,-0.94 1.1,1.1 0 0 0 -0.85,-0.34 1,1 0 0 0 -0.93,0.51 3.59,3.59 0 0 0 -0.34,1.62 4.23,4.23 0 0 0 0.34,1.7 1,1 0 0 0 0.93,0.52 z"
         id="path56" />
      <path
         class="cls-2"
         d="m 129.8278,23.364797 a 1,1 0 0 1 -0.68,0.26 0.51,0.51 0 0 1 -0.51,-0.26 1,1 0 0 1 -0.26,-0.68 h -0.34 a 1.2,1.2 0 0 0 0.34,0.94 1.15,1.15 0 0 0 0.86,0.34 1.08,1.08 0 0 0 0.84,-0.34 1.26,1.26 0 0 0 0.26,-0.86 0.92,0.92 0 0 0 -0.17,-0.68 1.62,1.62 0 0 0 -0.77,-0.42 c 0,-0.09 0,-0.09 -0.08,-0.09 a 4,4 0 0 1 -0.68,-0.34 0.29,0.29 0 0 1 -0.1,-0.26 0.34,0.34 0 0 1 -0.08,-0.26 0.79,0.79 0 0 1 0.25,-0.6 0.61,0.61 0 0 1 0.52,-0.25 0.5,0.5 0 0 1 0.5,0.25 0.72,0.72 0 0 1 0.18,0.52 h 0.34 a 1.08,1.08 0 0 0 -1.79,-0.77 1,1 0 0 0 -0.34,0.77 1,1 0 0 0 0.85,1.19 c 0.08,0 0.17,0.08 0.26,0.08 a 1.31,1.31 0 0 1 0.5,0.26 l 0.26,0.25 v 0.34 a 1.18,1.18 0 0 1 -0.16,0.61 z"
         id="path58" />
      <path
         class="cls-2"
         d="m 120.3778,21.914797 h 0.68 a 1.05,1.05 0 0 0 0.77,-0.25 0.91,0.91 0 0 0 0.34,-0.85 c 0,-0.26 0,-0.43 -0.09,-0.52 a 1.71,1.71 0 0 0 -0.25,-0.42 c -0.09,-0.09 -0.26,-0.09 -0.34,-0.17 h -1.45 v 4.17 h 0.34 z m 0,-2 h 0.68 c 0.26,0.09 0.43,0.09 0.51,0.17 a 0.86,0.86 0 0 1 0.26,0.69 0.71,0.71 0 0 1 -0.09,0.42 l -0.25,0.26 c -0.09,0 -0.17,0.08 -0.26,0.08 h -0.17 c -0.08,0.09 -0.08,0.09 -0.17,0.09 h -0.51 z"
         id="path60" />
      <polygon
         class="cls-2"
         points="58.46,68.56 58.46,66.86 59.82,66.86 59.82,66.52 58.46,66.52 58.46,64.98 59.99,64.98 59.99,64.73 58.12,64.73 58.12,68.9 59.99,68.9 59.99,68.56 "
         id="polygon62"
         transform="translate(67.537804,-45.025203)" />
      <path
         class="cls-2"
         d="m 123.0978,21.914797 h 0.77 a 0.7,0.7 0 0 1 0.43,0.17 1.15,1.15 0 0 1 0.17,0.68 v 0.34 c 0.08,0.43 0.08,0.69 0.17,0.77 h 0.42 c -0.17,-0.17 -0.17,-0.43 -0.25,-0.85 v -0.34 a 1.37,1.37 0 0 0 -0.17,-0.71 1.25,1.25 0 0 0 -0.34,-0.26 1,1 0 0 0 0.42,-0.42 1,1 0 0 0 0.17,-0.6 0.83,0.83 0 0 0 -0.35,-0.72 1,1 0 0 0 -0.68,-0.25 h -1.1 v 4.15 h 0.34 z m 0,-2 h 0.77 c 0.17,0.09 0.34,0.09 0.43,0.17 a 0.79,0.79 0 0 1 0.25,0.6 0.83,0.83 0 0 1 -0.25,0.68 0.65,0.65 0 0 1 -0.43,0.17 h -0.77 z"
         id="path64" />
      <path
         class="cls-2"
         d="m 136.3878,23.794797 a 1,1 0 0 0 0.85,-0.43 2.58,2.58 0 0 0 0.3,-1.62 2.77,2.77 0 0 0 -0.34,-1.62 1.06,1.06 0 0 0 -0.85,-0.42 h -1.2 v 4.17 h 0.86 a 0.55,0.55 0 0 0 0.38,-0.08 z m -0.85,-3.82 h 0.52 a 0.5,0.5 0 0 1 0.34,0.09 0.63,0.63 0 0 1 0.59,0.34 2.33,2.33 0 0 1 0.26,1.36 2.93,2.93 0 0 1 -0.26,1.45 1.43,1.43 0 0 1 -0.59,0.34 h -0.86 z"
         id="path66" />
      <path
         class="cls-2"
         d="m 143.2778,23.974797 a 1.28,1.28 0 0 0 0.51,-0.17 c 0.09,-0.09 0.26,-0.17 0.34,-0.35 l 0.09,0.43 h 0.25 v -2.14 h -1.27 v 0.34 h 0.93 a 3.58,3.58 0 0 1 -0.16,1.11 0.91,0.91 0 0 1 -0.69,0.43 0.89,0.89 0 0 1 -0.68,-0.43 5.38,5.38 0 0 1 -0.17,-1.45 4.69,4.69 0 0 1 0.17,-1.36 0.8,0.8 0 0 1 0.68,-0.51 0.5,0.5 0 0 1 0.51,0.25 0.94,0.94 0 0 1 0.26,0.69 h 0.42 a 2.29,2.29 0 0 0 -0.34,-0.94 1.43,1.43 0 0 0 -0.85,-0.26 1.06,1.06 0 0 0 -0.93,0.51 3.79,3.79 0 0 0 -0.26,1.62 3.72,3.72 0 0 0 0.26,1.62 0.91,0.91 0 0 0 0.93,0.61 z"
         id="path68" />
      <polygon
         class="cls-2"
         points="71.14,68.56 71.14,66.86 72.51,66.86 72.51,66.52 71.14,66.52 71.14,64.98 72.68,64.98 72.68,64.73 70.72,64.73 70.72,68.9 72.68,68.9 72.68,68.56 "
         id="polygon70"
         transform="translate(67.537804,-45.025203)" />
      <polygon
         class="cls-2"
         points="48.75,68.9 48.75,64.98 49.86,68.9 50.29,68.9 51.31,64.98 51.31,68.9 51.65,68.9 51.65,64.73 51.05,64.73 50.03,68.39 49.01,64.73 48.41,64.73 48.41,68.9 "
         id="polygon72"
         transform="translate(67.537804,-45.025203)" />
      <polygon
         class="cls-2"
         points="83.75,68.56 83.75,66.86 85.11,66.86 85.11,66.52 83.75,66.52 83.75,64.98 85.28,64.98 85.28,64.73 83.32,64.73 83.32,68.9 85.28,68.9 85.28,68.56 "
         id="polygon74"
         transform="translate(67.537804,-45.025203)" />
      <polygon
         class="cls-2"
         points="78.04,68.56 78.04,66.86 79.49,66.86 79.49,66.52 78.04,66.52 78.04,64.98 79.57,64.98 79.57,64.73 77.7,64.73 77.7,68.9 79.57,68.9 79.57,68.56 "
         id="polygon76"
         transform="translate(67.537804,-45.025203)" />
      <path
         class="cls-2"
         d="m 201.3478,23.874797 -1.11,-4.17 h -0.43 l -1.1,4.17 h 0.34 l 0.34,-1.36 h 1.28 l 0.34,1.36 z m -1.36,-1.62 h -0.6 l 0.6,-2.13 0.59,2.13 z"
         id="path78" />
      <path
         class="cls-2"
         d="m 132.0378,22.514797 h 0.6 l 0.43,1.36 h 0.34 l -1.11,-4.17 h -0.43 l -1.1,4.17 h 0.25 l 0.43,-1.36 z m 0,-2.39 0.6,2.13 h -1.19 z"
         id="path80" />
      <polygon
         class="cls-2"
         points="46.28,68.56 46.28,66.86 47.65,66.86 47.65,66.52 46.28,66.52 46.28,64.98 47.82,64.98 47.82,64.73 45.94,64.73 45.94,68.9 47.82,68.9 47.82,68.56 "
         id="polygon82"
         transform="translate(67.537804,-45.025203)" />
      <path
         class="cls-2"
         d="m 160.3078,23.974797 a 0.89,0.89 0 0 0 0.77,-0.43 1.48,1.48 0 0 0 0.34,-1.11 h -0.34 a 1.12,1.12 0 0 1 -0.26,0.85 0.53,0.53 0 0 1 -0.51,0.35 0.68,0.68 0 0 1 -0.68,-0.43 3.15,3.15 0 0 1 -0.26,-1.45 2.77,2.77 0 0 1 0.26,-1.36 0.64,0.64 0 0 1 0.68,-0.51 0.6,0.6 0 0 1 0.51,0.25 1.05,1.05 0 0 1 0.26,0.77 h 0.34 a 1.09,1.09 0 0 0 -0.34,-0.94 0.85,0.85 0 0 0 -0.77,-0.34 1,1 0 0 0 -0.94,0.51 2.77,2.77 0 0 0 -0.34,1.62 3.2,3.2 0 0 0 0.34,1.7 1,1 0 0 0 0.94,0.52 z"
         id="path84" />
      <polygon
         class="cls-2"
         points="97.54,63.62 97.11,63.62 96.94,63.88 96.6,64.39 96.86,64.39 96.94,64.3 "
         id="polygon86"
         transform="translate(67.537804,-45.025203)" />
      <polygon
         class="cls-2"
         points="100.86,68.3 99.24,64.73 98.9,64.73 98.9,68.9 99.24,68.9 99.24,65.32 100.77,68.9 101.2,68.9 101.2,64.73 100.86,64.73 "
         id="polygon88"
         transform="translate(67.537804,-45.025203)" />
      <polygon
         class="cls-2"
         points="103.67,68.56 103.67,66.86 105.03,66.86 105.03,66.52 103.67,66.52 103.67,64.98 105.2,64.98 105.2,64.73 103.33,64.73 103.33,68.9 105.2,68.9 105.2,68.56 "
         id="polygon90"
         transform="translate(67.537804,-45.025203)" />
      <polygon
         class="cls-2"
         points="108.61,68.56 108.61,66.86 109.97,66.86 109.97,66.52 108.61,66.52 108.61,64.98 110.14,64.98 110.14,64.73 108.27,64.73 108.27,68.9 110.14,68.9 110.14,68.56 "
         id="polygon92"
         transform="translate(67.537804,-45.025203)" />
      <polygon
         class="cls-2"
         points="106.14,68.56 106.14,64.73 105.8,64.73 105.8,68.9 107.75,68.9 107.75,68.56 "
         id="polygon94"
         transform="translate(67.537804,-45.025203)" />
      <path
         class="cls-2"
         d="m 164.4778,23.974797 a 1,1 0 0 0 0.94,-0.52 4.45,4.45 0 0 0 0.25,-1.7 3.81,3.81 0 0 0 -0.25,-1.62 1.11,1.11 0 0 0 -1.87,0 3.57,3.57 0 0 0 -0.35,1.62 4.21,4.21 0 0 0 0.35,1.7 1,1 0 0 0 0.93,0.52 z m -0.68,-3.58 c 0.17,-0.34 0.34,-0.51 0.68,-0.51 a 0.79,0.79 0 0 1 0.68,0.51 4.69,4.69 0 0 1 0.17,1.36 5.38,5.38 0 0 1 -0.17,1.45 0.88,0.88 0 0 1 -0.68,0.43 0.77,0.77 0 0 1 -0.68,-0.43 3.36,3.36 0 0 1 -0.17,-1.45 2.94,2.94 0 0 1 0.17,-1.37 z"
         id="path96" />
      <path
         class="cls-2"
         d="m 156.6478,22.514797 h 1.28 l 0.34,1.36 h 0.34 l -1.07,-4.17 h -0.42 l -1.15,4.17 h 0.34 z m 0.68,-2.39 0.51,2.13 h -1.1 z"
         id="path98" />
      <polygon
         class="cls-2"
         points="82.21,68.3 80.6,64.73 80.26,64.73 80.26,68.9 80.6,68.9 80.6,65.32 82.13,68.9 82.55,68.9 82.55,64.73 82.21,64.73 "
         id="polygon100"
         transform="translate(67.537804,-45.025203)" />
      <path
         class="cls-2"
         d="m 153.7478,21.914797 h 0.79 a 0.7,0.7 0 0 1 0.43,0.17 1.15,1.15 0 0 1 0.17,0.68 0.67,0.67 0 0 0 0.08,0.34 c 0,0.43 0,0.69 0.09,0.77 h 0.42 c -0.17,-0.17 -0.17,-0.43 -0.25,-0.85 v -0.34 a 6.8,6.8 0 0 0 -0.09,-0.68 1.7,1.7 0 0 0 -0.42,-0.26 1,1 0 0 0 0.42,-0.42 1,1 0 0 0 0.17,-0.6 0.83,0.83 0 0 0 -0.34,-0.77 1,1 0 0 0 -0.68,-0.25 h -1.13 v 4.17 h 0.34 z m 0,-2 h 0.79 c 0.17,0.09 0.34,0.09 0.43,0.17 a 0.79,0.79 0 0 1 0.25,0.6 0.83,0.83 0 0 1 -0.25,0.68 0.65,0.65 0 0 1 -0.43,0.17 h -0.77 z"
         id="path102" />
      <polygon
         class="cls-2"
         points="109.37,63.62 108.86,64.39 109.12,64.39 109.8,63.62 "
         id="polygon104"
         transform="translate(67.537804,-45.025203)" />
      <rect
         class="cls-2"
         x="162.17781"
         y="19.704802"
         width="0.34"
         height="4.1700001"
         id="rect106" />
      <path
         class="cls-2"
         d="m 94.157804,14.974797 c -0.77,0 -1.62,-0.08 -2.47,0 a 21.07,21.07 0 0 0 -14,5.88 21.9,21.9 0 0 0 -7.06,13.7 22.87,22.87 0 0 0 1.56,10.42 11,11 0 0 0 8.6,3.83 19.42,19.42 0 0 1 -4.85,-14.12 19.67,19.67 0 0 1 18.22,-18.22 h 2.55 c 0.94,0.09 1.87,0.26 2.81,0.43 -0.42,-0.09 -0.77,-0.09 -1.19,-0.17 a 16.93,16.93 0 0 0 -4.17,0.25 17.63,17.63 0 0 0 -9.54,29.63 l 1.11,1 a 11.33,11.33 0 0 0 3.32,-2.38 l -1.28,-1.11 a 15.8,15.8 0 0 1 6.39,-25.54 16.78,16.78 0 0 1 6.209996,-0.85 c 0.51,0.09 0.94,0.09 1.45,0.17 l 0.09,-0.85 a 21.55,21.55 0 0 0 -7.749996,-2.07 z"
         id="path108" />
      <path
         class="cls-2"
         d="m 94.157804,19.534797 a 14.11,14.11 0 0 0 -3.75,22.22 l 0.68,0.68 a 12.44,12.44 0 0 0 0.94,-3.66 11.33,11.33 0 0 1 -2.3,-6.47 13,13 0 0 1 4.43,-10.33 13.67,13.67 0 0 1 7.489996,-3.32 l 0.08,-0.68 h -0.08 a 14.59,14.59 0 0 0 -7.489996,1.56 z"
         id="path110" />
      <path
         class="cls-3"
         d="m 106.3278,27.624797 -0.79,2.55 -2.3,-16.69 -0.17,1.28 -1.59,11.21 -0.68,-0.6 -0.26,1.91 -0.34,-0.51 -0.589996,0.51 -0.77,-2 -0.09,-0.42 -1,0.93 a 28.71,28.71 0 0 1 -2.64,10.82 l 0.26,-0.17 0.08,-0.09 a 31.94,31.94 0 0 0 3.32,-8.43 l 0.09,0.51 1.11,5.88 a 10.7,10.7 0 0 1 1.699996,0 l 1.45,-14.48 v -0.34 l 0.68,14.82 v 0.25 a 12.46,12.46 0 0 1 2.74,1.06 l 0.6,-6.39 130.86,-1.53 z"
         id="path112" />
      <path
         class="cls-3"
         d="m 107.7778,38.094797 a 10.08,10.08 0 0 0 -4.68,-2.64 2.37,2.37 0 0 0 -0.77,-0.17 9.52,9.52 0 0 0 -3.489996,0 c -2.39,0.34 -4,1.36 -3.41,1.36 a 5.45,5.45 0 0 1 1.62,0.34 6.44,6.44 0 0 1 1.79,0.68 9.05,9.05 0 0 1 1.999996,1.2 11.87,11.87 0 0 1 2.3,2.29 l 0.51,0.77 a 14.07,14.07 0 0 1 1.87,5.19 12.41,12.41 0 0 1 -0.59,5.54 11.87,11.87 0 0 1 -1.79,3.15 c 0,0.08 -0.09,0.08 -0.09,0.08 h 0.09 c 3.32,-1.79 7.15,-4.42 7.75,-9.11 a 10.31,10.31 0 0 0 -3.11,-8.68 z"
         id="path114" />
      <path
         class="cls-3"
         d="m 98.837804,40.734797 c -2.22,-2 -4.6,-2.56 -4.17,-2.05 a 5.58,5.58 0 0 1 0.93,1.37 9.31,9.31 0 0 1 1.37,3.92 11.59,11.59 0 0 1 -0.26,4.18 11.78,11.78 0 0 1 -2.3,5 12.09,12.09 0 0 1 -4.08,3.4 c -0.09,0 -0.17,0.09 -0.26,0.09 a 12.26,12.26 0 0 1 -3.66,1 c 1.28,0.34 2.55,0.68 3.92,0.94 a 10.4,10.4 0 0 0 8.08,-1.88 c 0.17,-0.17 0.34,-0.25 0.43,-0.42 a 10.29,10.29 0 0 0 1.699996,-13.68 8.85,8.85 0 0 0 -1.699996,-1.87 z"
         id="path116" />
      <path
         class="cls-3"
         d="m 91.347804,51.974797 a 10.54,10.54 0 0 0 2.81,-5.45 c 0.68,-4.09 -1.37,-7.84 -1.37,-7 a 8.82,8.82 0 0 1 -0.34,1.7 9.36,9.36 0 0 1 -1.91,3.68 1.11,1.11 0 0 1 -0.25,0.34 13.58,13.58 0 0 1 -2.75,2.55 14.75,14.75 0 0 1 -5.2,1.88 13.47,13.47 0 0 1 -5.53,-0.6 10.65,10.65 0 0 1 -3.32,-1.87 c 1.79,3.32 4.43,7.24 9.19,7.75 a 10.16,10.16 0 0 0 7.67,-2.13 5.24,5.24 0 0 0 1,-0.85 z"
         id="path118" />
    </g>
  </g>
</svg>
